<?xml version="1.0" standalone="no"?>
<!DOCTYPE svg PUBLIC "-//W3C//DTD SVG 20010904//EN"
 "http://www.w3.org/TR/2001/REC-SVG-20010904/DTD/svg10.dtd">
<svg version="1.0" xmlns="http://www.w3.org/2000/svg"
 width="575.000000pt" height="551.000000pt" viewBox="0 0 575.000000 551.000000"
 preserveAspectRatio="xMidYMid meet">

<g transform="translate(0.000000,551.000000) scale(0.100000,-0.100000)"
fill="#000000" stroke="none">
<path d="M0 4066 c0 -1042 3 -1452 11 -1475 9 -24 9 -35 0 -44 -8 -8 -11 -354
-11 -1279 l0 -1268 970 0 c1084 0 1000 -6 940 71 -30 37 -31 39 -15 69 15 29
15 33 1 43 -14 10 -14 17 -4 45 10 26 10 36 -1 54 -12 20 -24 147 -22 241 0
16 -6 30 -14 34 -18 6 -20 30 -3 35 10 4 10 19 1 74 -8 44 -9 72 -3 78 20 20
9 28 -30 23 -22 -3 -40 -2 -40 1 0 3 12 19 27 34 21 22 23 28 10 28 -28 0 -28
18 0 44 15 14 22 26 15 26 -6 0 -21 9 -32 20 -19 19 -19 22 -5 36 27 28 18 37
-30 30 -29 -5 -45 -4 -45 3 0 6 9 11 20 11 11 0 20 5 20 11 0 6 7 17 16 26 9
9 12 22 8 32 -3 9 -12 30 -18 46 -6 17 -17 34 -24 38 -8 6 -11 20 -7 40 5 24
1 39 -13 58 -11 14 -23 41 -27 61 -5 25 -13 38 -27 41 -16 5 -19 11 -14 30 6
27 -15 109 -36 134 -7 9 -14 30 -14 47 -3 43 -9 74 -28 125 -9 24 -13 48 -9
54 4 6 8 42 9 80 1 37 8 74 14 82 9 11 9 23 0 50 -10 30 -9 42 5 71 16 33 16
36 -1 48 -16 12 -16 14 4 34 38 38 22 78 -16 42 -12 -11 -24 -20 -27 -20 -3 0
-17 -11 -31 -25 -14 -14 -27 -25 -29 -25 -13 0 1 21 50 75 30 33 55 65 55 71
0 7 7 14 15 18 19 7 19 45 0 52 -8 4 -27 -1 -41 -11 -14 -9 -32 -14 -41 -11
-11 5 0 18 41 52 31 26 56 53 56 61 0 7 7 16 15 19 24 10 18 21 -15 28 -16 3
-30 12 -30 19 0 12 -7 12 -40 4 -22 -6 -40 -15 -40 -19 0 -4 -9 -8 -19 -8 -11
0 -21 -3 -23 -7 -1 -5 -28 -21 -58 -37 -30 -16 -69 -40 -86 -53 -17 -13 -36
-23 -42 -23 -6 0 -12 -4 -14 -10 -1 -5 -16 -11 -33 -13 -16 -3 -24 -2 -18 0 7
2 13 8 13 12 0 4 11 13 25 19 14 7 51 31 83 54 31 23 59 44 61 45 2 2 2 5 0 8
-3 2 -43 -19 -89 -47 -47 -28 -92 -53 -100 -56 -8 -3 -20 -11 -27 -16 -35 -31
-43 -36 -58 -36 -8 0 -15 -4 -15 -10 0 -5 -7 -10 -15 -10 -8 0 -19 -9 -25 -20
-6 -11 -17 -20 -25 -20 -8 0 -15 -4 -15 -10 0 -5 -5 -10 -12 -10 -6 0 -25 -11
-42 -24 -33 -25 -108 -65 -91 -48 14 13 213 160 272 200 93 63 186 122 192
122 4 0 25 13 47 29 21 16 55 38 74 48 123 69 149 85 165 103 41 45 4 37 -186
-43 -105 -44 -330 -155 -339 -168 -3 -3 -22 -12 -42 -20 -21 -7 -38 -16 -38
-19 0 -3 -17 -14 -38 -25 -20 -11 -43 -26 -50 -32 -13 -13 -32 -17 -32 -9 0 3
26 22 57 43 32 20 60 40 63 43 10 12 294 171 350 196 124 57 219 104 225 113
4 7 -4 11 -18 11 -29 0 -194 -53 -251 -81 -22 -10 -45 -19 -51 -19 -5 0 -27
-9 -48 -20 -44 -24 -47 -24 -47 -5 0 8 6 15 12 15 7 0 40 13 73 30 33 16 73
34 89 40 16 6 26 13 23 17 -7 7 -224 -12 -387 -33 -227 -30 -246 -33 -273 -43
-34 -13 -42 1 -52 89 -4 36 -11 70 -15 75 -4 6 -10 39 -13 75 -3 36 -19 157
-37 270 -17 113 -35 234 -40 270 -4 36 -13 97 -18 135 -20 131 -20 153 -6 172
13 17 14 17 20 -4 5 -20 13 -23 53 -23 25 0 56 -3 69 -6 16 -5 22 -2 22 10 0
14 38 16 383 18 210 1 391 3 402 4 11 1 30 2 43 3 12 1 22 5 22 10 0 14 -41
25 -49 13 -3 -5 -24 -8 -46 -7 -22 2 -165 6 -317 10 -153 4 -278 11 -278 16 0
5 -10 9 -22 9 -14 0 -18 -3 -11 -8 6 -4 -62 -8 -151 -10 l-162 -2 -19 152 c-9
84 -22 156 -27 159 -5 3 -11 39 -14 80 -6 72 -5 73 10 45 9 -15 16 -38 16 -50
0 -11 6 -41 14 -66 15 -51 16 -54 16 -76 0 -8 4 -12 10 -9 5 3 10 18 10 32 0
22 2 24 16 12 10 -8 12 -15 5 -17 -6 -2 -11 -8 -11 -13 0 -6 5 -7 11 -4 5 4
19 -1 29 -10 10 -9 24 -14 29 -10 6 3 11 1 11 -4 0 -7 30 -11 80 -11 44 0 80
-4 80 -9 0 -5 36 -12 80 -16 44 -4 80 -10 80 -14 0 -6 -65 -51 -75 -51 -3 0
-5 9 -5 20 0 22 -15 27 -25 9 -8 -13 28 -49 49 -49 7 0 16 -7 20 -15 3 -8 12
-15 21 -15 8 0 15 -4 15 -10 0 -5 7 -7 16 -3 15 5 15 7 0 15 -21 12 -21 28 1
28 15 0 15 1 -2 14 -24 18 -13 46 19 46 30 0 43 17 19 23 -17 4 -17 5 -1 11
11 5 24 0 37 -13 21 -21 71 -29 71 -11 0 6 -17 10 -37 10 -36 1 -37 1 -18 16
13 10 33 13 60 10 22 -3 72 -8 110 -12 50 -5 63 -9 45 -14 -21 -5 -22 -7 -7
-13 12 -4 29 4 56 29 23 20 42 31 46 24 3 -5 22 -10 41 -10 32 0 34 2 28 28
-4 15 -11 31 -15 37 -5 5 -9 15 -9 22 0 7 -16 46 -35 86 -42 88 -86 229 -87
275 0 46 15 59 80 67 68 8 136 -6 211 -43 87 -43 260 -141 320 -181 29 -20 61
-41 71 -46 10 -6 25 -17 34 -24 19 -16 46 -8 46 14 0 26 28 17 47 -16 19 -33
62 -63 105 -73 22 -5 28 -2 37 24 11 34 11 33 44 21 17 -7 30 -6 44 4 10 7 30
13 43 13 14 0 52 1 84 3 45 1 62 -2 71 -15 15 -20 64 -21 93 0 20 14 28 14 80
0 86 -22 190 -23 228 -3 17 9 34 14 37 10 3 -3 36 0 72 6 61 11 70 10 111 -9
44 -22 64 -20 64 5 0 21 30 26 129 23 65 -2 91 -7 91 -15 0 -18 45 -16 60 2
17 21 27 19 33 -7 5 -18 8 -19 21 -8 14 11 16 9 16 -9 0 -11 5 -21 12 -21 15
0 95 47 131 77 16 12 37 23 48 23 10 0 19 5 19 10 0 6 7 10 15 10 8 0 15 5 15
10 0 6 6 10 13 10 7 0 28 13 47 28 19 15 58 41 85 58 28 16 59 35 70 42 62 39
156 75 208 80 53 4 128 -9 150 -29 11 -9 -12 -86 -30 -100 -7 -6 -13 -22 -13
-35 0 -13 -4 -24 -10 -24 -5 0 -10 5 -10 12 0 7 -5 5 -12 -4 -7 -9 -24 -18
-38 -20 -19 -2 -25 -9 -25 -28 0 -14 -6 -31 -12 -38 -7 -7 -16 -25 -19 -40 -3
-15 -12 -48 -20 -74 -14 -48 -18 -88 -9 -88 3 0 17 7 30 16 25 16 25 16 25
-15 0 -17 -4 -31 -10 -31 -5 0 -12 -11 -16 -25 -3 -13 -12 -29 -20 -36 -12
-10 -35 -71 -40 -104 0 -5 -6 -23 -13 -40 -12 -30 -7 -90 9 -110 5 -6 3 -30
-3 -54 -11 -41 -10 -44 14 -65 33 -29 95 -135 108 -183 21 -87 21 -102 0 -121
-15 -15 -17 -21 -7 -29 8 -6 127 -13 288 -18 358 -9 429 -12 465 -23 39 -12
-211 -27 -300 -18 -156 15 -393 18 -429 6 -36 -12 -37 -13 -20 -31 17 -18 16
-20 -2 -34 -10 -8 -23 -15 -27 -15 -13 0 -37 -27 -30 -34 4 -3 -1 -6 -11 -6
-13 0 -15 -4 -7 -19 13 -23 65 -32 411 -68 30 -3 60 -10 67 -15 6 -5 51 -11
100 -14 48 -3 108 -12 132 -20 25 -8 58 -14 75 -15 17 0 47 -7 66 -15 34 -14
33 -14 -42 -10 -42 2 -125 14 -185 25 -189 36 -287 51 -323 51 -19 0 -90 5
-158 12 -96 9 -127 9 -142 0 -11 -7 -26 -12 -33 -12 -8 0 -13 -11 -12 -27 0
-20 8 -31 29 -42 25 -12 27 -15 12 -23 -9 -5 -22 -6 -29 -2 -6 4 -5 0 3 -8 8
-8 118 -50 245 -92 126 -43 234 -81 240 -85 5 -4 48 -23 95 -41 47 -18 89 -37
95 -42 5 -4 17 -8 27 -8 10 0 18 -4 18 -10 0 -5 7 -10 16 -10 14 0 133 -61
237 -122 26 -15 50 -28 53 -28 5 0 43 -23 177 -105 52 -33 66 -56 15 -25 -18
10 -60 33 -93 51 -33 17 -71 39 -85 49 -37 25 -319 162 -440 214 -112 47 -138
57 -265 100 -44 15 -89 31 -100 36 -52 22 -229 71 -248 68 -44 -6 -42 -156 2
-159 9 -1 3 -4 -14 -8 -25 -5 -30 -11 -30 -36 0 -27 14 -40 128 -126 142 -106
222 -177 211 -187 -4 -4 -9 -1 -11 6 -3 6 -9 12 -14 12 -6 0 -20 9 -32 21 -60
57 -253 189 -277 189 -19 0 -10 -70 24 -172 47 -142 89 -326 82 -360 -3 -15
-1 -30 5 -34 7 -4 6 -10 -2 -20 -7 -9 -8 -23 -3 -41 10 -33 9 -82 -5 -172 -5
-35 -7 -78 -4 -96 3 -18 -6 -72 -23 -131 -23 -82 -28 -122 -29 -234 -2 -74 -8
-168 -14 -209 -8 -55 -8 -83 0 -108 21 -63 -11 -250 -54 -323 -15 -25 -30 -53
-33 -63 -4 -9 -10 -17 -15 -17 -5 0 -9 -9 -9 -20 0 -11 -7 -23 -15 -26 -17 -7
-21 -34 -5 -34 14 0 12 -28 -2 -33 -10 -3 -10 -7 -1 -18 9 -11 9 -52 2 -164
-5 -83 -11 -162 -14 -177 l-4 -28 879 0 880 0 0 931 0 931 -45 -6 c-48 -8 -85
-1 -85 15 0 11 53 58 82 73 53 27 21 76 -94 143 -59 35 -79 53 -56 53 24 -1
138 -62 141 -76 1 -8 42 -34 53 -34 2 0 4 308 4 685 0 377 -3 685 -7 685 -19
-1 -33 -18 -27 -33 7 -20 -7 -22 -24 -5 -14 14 -16 48 -3 48 5 0 12 16 15 35
9 48 34 46 39 -2 3 -32 4 -30 5 14 1 33 -2 53 -10 56 -10 4 -10 6 0 6 9 1 12
207 12 996 l0 995 -2875 0 -2875 0 0 -1444z m5274 -792 c4 -10 14 -14 26 -11
27 7 47 -18 30 -38 -15 -18 -6 -45 15 -45 9 0 15 9 15 25 l0 24 23 -23 c12
-12 31 -27 41 -33 11 -6 20 -21 21 -34 2 -27 35 -40 35 -15 0 9 7 16 15 16 19
0 19 -7 -1 -27 -8 -9 -13 -24 -11 -34 3 -10 -4 -26 -14 -35 -10 -9 -19 -24
-19 -32 0 -11 -10 -14 -45 -10 -27 3 -46 1 -48 -5 -2 -6 -20 -11 -40 -10 -35
1 -37 -1 -36 -30 0 -30 1 -31 11 -9 11 21 48 32 48 13 0 -5 7 -12 16 -15 9 -3
12 -2 9 5 -7 11 22 38 41 39 7 0 -8 -39 -32 -86 -31 -63 -42 -94 -37 -111 5
-22 3 -24 -13 -15 -11 5 -50 12 -88 15 -81 6 -120 30 -67 42 28 6 45 35 20 35
-15 0 -1 60 22 89 10 13 16 28 13 33 -3 5 4 19 16 30 18 17 26 19 46 9 31 -14
54 -14 54 -1 0 6 -7 10 -15 10 -9 0 -38 11 -65 25 -27 14 -56 25 -64 25 -9 0
-30 9 -47 19 l-31 19 60 7 c34 4 70 4 81 0 12 -3 21 -2 21 3 0 6 -12 13 -26
16 -17 5 -24 12 -20 21 3 8 1 17 -4 20 -6 3 -5 16 1 32 5 15 8 32 5 39 -2 7
-2 15 1 18 12 11 31 6 37 -10z m-214 -251 c0 -5 -7 -16 -15 -27 -16 -21 -35
-13 -35 15 0 14 7 19 25 19 14 0 25 -3 25 -7z m-4866 -180 c15 -82 32 -161 37
-177 10 -32 12 -90 3 -98 -3 -3 -13 -4 -23 -1 -13 3 -22 25 -34 76 -10 40 -17
84 -17 99 0 15 -5 39 -11 54 -5 16 -14 60 -19 99 -8 60 -7 72 7 83 9 6 20 12
23 12 4 0 19 -66 34 -147z m4891 81 c0 -38 -1 -39 -35 -39 -32 0 -35 2 -35 30
0 26 3 30 25 28 14 -1 19 1 11 4 -11 5 -11 7 0 14 24 15 34 4 34 -37z m-5038
-16 c-3 -8 -6 -5 -6 6 -1 11 2 17 5 13 3 -3 4 -12 1 -19z m4240 -94 c-3 -3
-12 -4 -19 -1 -8 3 -5 6 6 6 11 1 17 -2 13 -5z m-3082 -565 c-4 -5 -12 -9 -18
-8 -9 0 -8 2 1 6 6 2 9 10 6 15 -4 7 -2 8 5 4 6 -4 9 -12 6 -17z m280 -29
c-39 -26 -53 -26 -30 0 10 11 28 20 39 20 18 0 17 -3 -9 -20z m3005 5 c7 -8 8
-15 2 -15 -5 0 -15 7 -22 15 -7 8 -8 15 -2 15 5 0 15 -7 22 -15z m960 -15 c0
-5 -2 -10 -4 -10 -3 0 -8 5 -11 10 -3 6 -1 10 4 10 6 0 11 -4 11 -10z m-824
-119 c19 -19 32 -37 29 -39 -5 -5 -145 133 -145 144 0 8 52 -39 116 -105z
m-3526 85 c-1 -5 4 -13 12 -17 9 -6 4 -9 -14 -9 -27 0 -37 17 -21 34 9 8 25 3
23 -8z m-215 -86 c-3 -5 -10 -10 -16 -10 -5 0 -9 5 -9 10 0 6 7 10 16 10 8 0
12 -4 9 -10z m3915 -27 c0 -18 -17 -16 -24 3 -8 22 4 40 15 23 5 -8 9 -20 9
-26z m-3995 -23 c-3 -5 -11 -10 -16 -10 -6 0 -7 5 -4 10 3 6 11 10 16 10 6 0
7 -4 4 -10z m642 -15 c-7 -14 -18 -25 -24 -25 -17 0 -16 6 5 29 24 27 32 25
19 -4z m-167 -5 c0 -5 -5 -10 -11 -10 -5 0 -7 5 -4 10 3 6 8 10 11 10 2 0 4
-4 4 -10z m3634 -20 c16 -16 -18 -12 -50 6 l-29 16 35 -6 c19 -4 39 -11 44
-16z m46 -20 c0 -5 -4 -10 -10 -10 -5 0 -10 5 -10 10 0 6 5 10 10 10 6 0 10
-4 10 -10z m71 -28 c-7 -2 -18 1 -23 6 -8 8 -4 9 13 5 13 -4 18 -8 10 -11z
m276 -58 c-3 -3 -12 -4 -19 -1 -8 3 -5 6 6 6 11 1 17 -2 13 -5z m226 -21 c-29
-2 -78 -2 -110 0 -32 2 -8 3 52 3 61 0 87 -1 58 -3z"/>
<path d="M5400 3151 c-14 -4 -20 -10 -14 -14 6 -3 20 0 30 8 21 16 20 16 -16
6z"/>
<path d="M5396 3105 c4 -8 15 -15 25 -15 10 0 19 7 19 15 0 9 -9 15 -25 15
-18 0 -23 -4 -19 -15z"/>
<path d="M5382 3043 c18 -3 25 -9 21 -19 -6 -16 5 -18 26 -5 23 15 2 31 -37
30 -29 -2 -31 -3 -10 -6z"/>
<path d="M4290 4388 c0 -4 7 -8 15 -8 8 0 15 -7 15 -16 0 -11 5 -14 16 -10 9
3 17 6 19 6 2 0 1 9 -2 19 -4 14 -13 19 -34 19 -16 -1 -29 -5 -29 -10z"/>
<path d="M2074 4152 c-9 -5 -8 -10 2 -19 9 -9 15 -10 20 -2 8 14 -8 30 -22 21z"/>
<path d="M1440 3915 c0 -9 5 -15 11 -13 6 2 11 8 11 13 0 5 -5 11 -11 13 -6 2
-11 -4 -11 -13z"/>
<path d="M560 3844 c0 -8 5 -12 10 -9 6 3 10 10 10 16 0 5 -4 9 -10 9 -5 0
-10 -7 -10 -16z"/>
<path d="M1100 3810 c0 -5 5 -10 10 -10 6 0 10 5 10 10 0 6 -4 10 -10 10 -5 0
-10 -4 -10 -10z"/>
<path d="M3615 3620 c-11 -5 -41 -9 -66 -9 -77 -1 -199 -67 -199 -106 0 -11
12 -15 48 -15 34 0 43 3 32 10 -9 6 -10 10 -3 10 6 0 14 -4 17 -9 3 -5 32 -12
63 -16 63 -7 158 11 209 38 16 9 39 21 52 26 16 8 22 18 20 33 -2 18 -14 24
-63 34 -71 15 -83 15 -110 4z"/>
<path d="M2140 3580 c0 -5 5 -10 10 -10 6 0 10 5 10 10 0 6 -4 10 -10 10 -5 0
-10 -4 -10 -10z"/>
<path d="M2077 3573 c-10 -20 0 -48 18 -51 17 -4 18 -2 6 12 -11 13 -11 17 3
22 9 3 16 10 16 15 0 11 -37 12 -43 2z"/>
<path d="M2250 3571 c-12 -8 -12 -13 -2 -23 6 -6 12 -20 12 -30 0 -10 7 -18
15 -18 7 0 18 -7 23 -16 9 -16 16 -15 72 18 8 5 23 11 33 14 9 4 17 12 17 20
0 24 -143 53 -170 35z"/>
<path d="M955 3560 c-3 -5 -18 -10 -33 -10 -15 0 -36 -7 -46 -15 -11 -8 -38
-15 -60 -15 -73 -1 -12 -23 73 -26 76 -4 76 -4 94 27 9 17 15 35 11 40 -7 12
-31 11 -39 -1z"/>
<path d="M1040 3492 c0 -30 79 -44 121 -21 15 8 24 7 36 -3 14 -11 15 -11 11
1 -5 17 -31 25 -111 35 -52 7 -57 6 -57 -12z"/>
<path d="M1190 3414 c8 -10 15 -20 16 -22 1 -2 18 0 38 3 42 8 49 26 9 23 -16
-1 -39 2 -53 7 -23 7 -24 7 -10 -11z"/>
<path d="M1423 3404 c-3 -8 -1 -20 6 -27 8 -8 11 -4 11 16 0 30 -7 35 -17 11z"/>
<path d="M3143 3119 c-23 -4 -56 -18 -73 -31 -29 -21 -79 -39 -160 -57 -26 -5
-40 -4 -48 6 -7 7 -10 13 -5 13 4 0 -2 7 -13 15 -22 17 -70 20 -79 5 -4 -6 4
-25 18 -43 13 -18 27 -41 31 -52 3 -11 19 -35 36 -53 16 -18 30 -37 30 -43 0
-5 4 -9 10 -9 15 0 5 -73 -14 -102 -19 -29 -137 -91 -158 -83 -23 8 -120 -19
-132 -37 -21 -34 30 -83 62 -60 9 6 28 17 42 22 14 6 31 13 38 18 8 4 44 5 80
2 44 -4 88 -1 126 8 47 12 73 13 140 4 158 -22 191 -28 213 -42 20 -13 53 -80
53 -109 0 -18 26 -41 46 -41 10 0 33 5 51 12 26 9 32 16 27 31 -4 13 0 20 14
24 32 8 48 48 32 81 -38 80 -46 92 -58 92 -8 0 -12 6 -9 14 7 17 -16 24 -63
20 -19 -2 -94 -5 -166 -8 -117 -4 -135 -2 -163 15 -65 39 -72 115 -17 174 14
15 26 32 26 37 0 5 15 24 33 42 71 71 117 127 112 136 -3 6 -9 10 -13 9 -4 -1
-26 -5 -49 -10z"/>
<path d="M683 3085 c-3 -9 -3 -19 1 -22 8 -9 37 18 30 28 -8 14 -24 11 -31 -6z"/>
<path d="M1360 2892 c0 -5 -9 -12 -21 -15 -24 -7 -23 -34 4 -51 26 -16 72 12
72 44 0 20 -6 26 -27 28 -16 2 -28 -1 -28 -6z"/>
<path d="M3878 2813 c12 -2 32 -2 45 0 12 2 2 4 -23 4 -25 0 -35 -2 -22 -4z"/>
<path d="M1580 2520 c0 -5 5 -10 10 -10 6 0 10 5 10 10 0 6 -4 10 -10 10 -5 0
-10 -4 -10 -10z"/>
<path d="M1510 2485 c-7 -9 -8 -15 -2 -15 5 0 12 7 16 15 3 8 4 15 2 15 -2 0
-9 -7 -16 -15z"/>
<path d="M3545 2470 c-3 -11 -11 -20 -16 -20 -6 0 -9 -10 -7 -22 3 -20 -2 -23
-27 -23 -16 0 -30 -5 -30 -12 0 -20 -16 -28 -25 -13 -5 8 -13 11 -17 6 -4 -5
-2 -11 5 -13 18 -7 15 -16 -18 -58 -19 -24 -30 -49 -30 -69 0 -18 -8 -41 -18
-52 -26 -28 -47 -115 -31 -125 7 -4 17 -5 21 -3 4 3 8 -2 8 -11 0 -9 -4 -14
-9 -11 -14 9 -71 -43 -71 -65 0 -11 -4 -17 -10 -14 -6 3 -7 -1 -3 -10 3 -9 9
-13 12 -8 8 12 49 14 56 2 12 -18 23 -8 45 36 22 45 33 54 45 35 9 -15 29 9
41 50 7 27 16 36 34 38 50 5 100 23 100 36 0 7 18 21 40 32 22 10 40 25 40 32
0 7 7 15 15 18 17 7 20 24 4 24 -23 0 -41 30 -34 57 4 17 9 22 14 15 5 -8 15
-4 35 11 27 22 28 24 15 66 -8 27 -25 52 -46 68 -37 29 -51 26 -33 -7 17 -31
-5 -54 -25 -26 -8 10 -18 15 -24 12 -5 -3 -18 5 -29 19 -20 25 -21 25 -27 5z
m-185 -495 c0 -8 -6 -15 -14 -15 -8 0 -16 7 -20 15 -4 10 1 15 14 15 11 0 20
-7 20 -15z"/>
<path d="M1450 2450 c-18 -12 -2 -12 25 0 13 6 15 9 5 9 -8 0 -22 -4 -30 -9z"/>
<path d="M3525 2060 c3 -5 8 -10 11 -10 2 0 4 5 4 10 0 6 -5 10 -11 10 -5 0
-7 -4 -4 -10z"/>
<path d="M3485 2040 c-3 -5 -1 -10 4 -10 6 0 11 5 11 10 0 6 -2 10 -4 10 -3 0
-8 -4 -11 -10z"/>
<path d="M2880 115 c0 -8 -3 -15 -7 -16 -86 -9 -117 -17 -128 -32 -6 -9 -34
-27 -61 -41 l-49 -25 203 -1 c111 0 202 4 202 8 0 5 -9 17 -20 27 -11 10 -20
26 -20 35 0 22 -18 30 -52 23 -20 -4 -29 0 -37 16 -14 24 -31 28 -31 6z"/>
</g>
</svg>
